<svg width="700" height="700" viewBox="0 0 700 700" fill="none" xmlns="http://www.w3.org/2000/svg">
<g clip-path="url(#clip0_110_113)">
<mask id="path-1-inside-1_110_113" fill="white">
<path fill-rule="evenodd" clip-rule="evenodd" d="M184.811 17.0498L190.666 87.3203C38.1341 260.138 19.1822 332.807 121.298 467.135L106.819 425.439C106.354 424.098 105.955 422.749 105.622 421.398C102.862 415.059 100.336 408.274 98.0635 401.025C72.7181 328.032 110.075 247.188 182.802 221.75C239.299 201.989 299.886 220.844 335.996 264.463C337.428 207.962 373.153 155.637 429.475 135.937C500.715 111.019 578.462 147.549 605.353 217.711C605.559 218.156 605.744 218.616 605.909 219.089L606.91 221.975L638.227 312.164C633.362 112.796 607.367 88.8117 328.865 60.3836L320.667 21.7348C643.956 21.2593 736.915 140.684 667.445 396.309L693.117 470.244C702.175 496.331 688.388 524.869 662.322 533.986L508.448 587.807L588.829 738.748C597.689 755.386 602.324 773.959 602.324 792.829L602.325 994.359L572.344 994.411L572.344 792.882C572.343 778.934 568.918 765.207 562.369 752.908L479.785 597.833L454.801 606.571L456.672 698.929C456.841 707.244 456.108 715.552 454.488 723.707L440.353 794.822C439.286 800.189 437.838 805.472 436.019 810.632L411.928 878.988C407.828 890.62 401.885 901.513 394.326 911.249L332.347 991.08L308.662 972.634L370.642 892.803C376.229 885.607 380.621 877.556 383.651 868.958L407.743 800.602C409.087 796.788 410.157 792.883 410.946 788.916L425.081 717.801C426.279 711.774 426.82 705.633 426.696 699.487L425.024 616.987L247.785 678.98C221.719 688.097 193.246 674.341 184.188 648.255L156.526 568.591C153.151 564.834 149.759 561.072 146.362 557.303C25.1337 422.822 -104.019 279.55 184.811 17.0498Z"/>
</mask>
<path fill-rule="evenodd" clip-rule="evenodd" d="M184.811 17.0498L190.666 87.3203C38.1341 260.138 19.1822 332.807 121.298 467.135L106.819 425.439C106.354 424.098 105.955 422.749 105.622 421.398C102.862 415.059 100.336 408.274 98.0635 401.025C72.7181 328.032 110.075 247.188 182.802 221.75C239.299 201.989 299.886 220.844 335.996 264.463C337.428 207.962 373.153 155.637 429.475 135.937C500.715 111.019 578.462 147.549 605.353 217.711C605.559 218.156 605.744 218.616 605.909 219.089L606.91 221.975L638.227 312.164C633.362 112.796 607.367 88.8117 328.865 60.3836L320.667 21.7348C643.956 21.2593 736.915 140.684 667.445 396.309L693.117 470.244C702.175 496.331 688.388 524.869 662.322 533.986L508.448 587.807L588.829 738.748C597.689 755.386 602.324 773.959 602.324 792.829L602.325 994.359L572.344 994.411L572.344 792.882C572.343 778.934 568.918 765.207 562.369 752.908L479.785 597.833L454.801 606.571L456.672 698.929C456.841 707.244 456.108 715.552 454.488 723.707L440.353 794.822C439.286 800.189 437.838 805.472 436.019 810.632L411.928 878.988C407.828 890.62 401.885 901.513 394.326 911.249L332.347 991.08L308.662 972.634L370.642 892.803C376.229 885.607 380.621 877.556 383.651 868.958L407.743 800.602C409.087 796.788 410.157 792.883 410.946 788.916L425.081 717.801C426.279 711.774 426.82 705.633 426.696 699.487L425.024 616.987L247.785 678.98C221.719 688.097 193.246 674.341 184.188 648.255L156.526 568.591C153.151 564.834 149.759 561.072 146.362 557.303C25.1337 422.822 -104.019 279.55 184.811 17.0498Z" fill="white"/>
<path d="M190.666 87.3203L193.665 89.9673L194.794 88.6882L194.653 86.9881L190.666 87.3203ZM184.811 17.0498L188.797 16.7176L188.123 8.63405L182.12 14.0897L184.811 17.0498ZM121.298 467.135L118.113 469.556L125.076 465.823L121.298 467.135ZM106.819 425.439L110.598 424.127L110.598 424.127L106.819 425.439ZM105.622 421.398L109.506 420.44L109.425 420.111L109.289 419.801L105.622 421.398ZM98.0635 401.025L101.88 399.829L101.862 399.771L101.842 399.713L98.0635 401.025ZM182.802 221.75L184.123 225.526L184.123 225.526L182.802 221.75ZM335.996 264.463L332.915 267.014L339.724 275.239L339.995 264.564L335.996 264.463ZM429.475 135.937L428.154 132.161L428.154 132.161L429.475 135.937ZM605.353 217.711L601.618 219.142L601.666 219.266L601.721 219.386L605.353 217.711ZM605.909 219.089L609.687 217.777L609.687 217.777L605.909 219.089ZM606.91 221.975L603.131 223.286L603.132 223.287L606.91 221.975ZM638.227 312.164L634.448 313.476L642.226 312.066L638.227 312.164ZM328.865 60.3836L324.952 61.2136L325.557 64.0667L328.459 64.3629L328.865 60.3836ZM320.667 21.7348L320.661 17.7348L315.731 17.7421L316.754 22.5648L320.667 21.7348ZM667.445 396.309L663.585 395.26L663.261 396.453L663.666 397.621L667.445 396.309ZM693.117 470.244L696.896 468.932L696.896 468.932L693.117 470.244ZM662.322 533.986L661.001 530.21L661.001 530.21L662.322 533.986ZM508.448 587.807L507.127 584.032L502.725 585.571L504.917 589.687L508.448 587.807ZM588.829 738.748L585.298 740.628L585.298 740.628L588.829 738.748ZM602.324 792.829L598.324 792.829L598.324 792.829L602.324 792.829ZM602.325 994.359L602.332 998.359L606.325 998.352L606.325 994.359L602.325 994.359ZM572.344 994.411L568.344 994.411L568.344 998.418L572.351 998.411L572.344 994.411ZM572.344 792.882L576.344 792.882L576.344 792.882L572.344 792.882ZM562.369 752.908L565.899 751.028L565.899 751.028L562.369 752.908ZM479.785 597.833L483.316 595.952L481.703 592.924L478.465 594.057L479.785 597.833ZM454.801 606.571L453.481 602.796L450.743 603.753L450.802 606.652L454.801 606.571ZM456.672 698.929L452.673 699.01L452.673 699.01L456.672 698.929ZM454.488 723.707L450.564 722.927L450.564 722.927L454.488 723.707ZM440.353 794.822L444.276 795.602L444.276 795.602L440.353 794.822ZM436.019 810.632L432.247 809.302L432.247 809.302L436.019 810.632ZM411.928 878.988L415.701 880.318L415.701 880.318L411.928 878.988ZM394.326 911.249L391.167 908.796L391.167 908.796L394.326 911.249ZM332.347 991.08L329.889 994.236L333.05 996.698L335.506 993.533L332.347 991.08ZM308.662 972.634L305.502 970.181L303.053 973.336L306.204 975.79L308.662 972.634ZM370.642 892.803L367.482 890.35L367.482 890.35L370.642 892.803ZM383.651 868.958L387.424 870.288L387.424 870.288L383.651 868.958ZM407.743 800.602L411.516 801.931L411.516 801.931L407.743 800.602ZM410.946 788.916L407.022 788.137L407.022 788.137L410.946 788.916ZM425.081 717.801L429.004 718.581L429.004 718.581L425.081 717.801ZM426.696 699.487L422.696 699.568L422.696 699.568L426.696 699.487ZM425.024 616.987L429.023 616.905L428.912 611.389L423.704 613.211L425.024 616.987ZM247.785 678.98L249.105 682.756L249.105 682.756L247.785 678.98ZM184.188 648.255L187.966 646.942L187.966 646.942L184.188 648.255ZM156.526 568.591L160.305 567.279L160.04 566.518L159.502 565.918L156.526 568.591ZM146.362 557.303L143.391 559.981L143.391 559.981L146.362 557.303ZM194.653 86.9881L188.797 16.7176L180.824 17.382L186.68 87.6525L194.653 86.9881ZM124.482 464.715C73.6514 397.849 53.7064 347.29 64.415 292.427C75.2205 237.069 117.339 176.444 193.665 89.9673L187.667 84.6734C111.462 171.014 67.8379 233.133 56.5632 290.895C45.1917 349.153 66.8284 402.093 118.113 469.556L124.482 464.715ZM103.041 426.751L117.519 468.447L125.076 465.823L110.598 424.127L103.041 426.751ZM101.738 422.355C102.101 423.826 102.535 425.293 103.041 426.751L110.598 424.127C110.173 422.902 109.809 421.672 109.506 420.44L101.738 422.355ZM94.2467 402.222C96.5595 409.598 99.1345 416.517 101.954 422.994L109.289 419.801C106.59 413.601 104.113 406.95 101.88 399.829L94.2467 402.222ZM181.481 217.975C106.593 244.169 68.2438 327.341 94.2848 402.337L101.842 399.713C77.1924 328.724 113.557 250.208 184.123 225.526L181.481 217.975ZM339.077 261.912C301.938 217.05 239.613 197.642 181.481 217.975L184.123 225.526C238.986 206.336 297.835 224.638 332.915 267.014L339.077 261.912ZM428.154 132.161C370.205 152.43 333.47 206.26 331.997 264.362L339.995 264.564C341.387 209.664 376.101 158.843 430.796 139.713L428.154 132.161ZM609.088 216.279C581.429 144.113 501.452 106.524 428.154 132.161L430.796 139.713C499.978 115.515 575.495 150.984 601.618 219.142L609.088 216.279ZM609.687 217.777C609.48 217.18 609.246 216.599 608.986 216.036L601.721 219.386C601.872 219.713 602.009 220.051 602.13 220.401L609.687 217.777ZM610.689 220.663L609.687 217.777L602.13 220.4L603.131 223.286L610.689 220.663ZM642.006 310.852L610.689 220.663L603.132 223.287L634.448 313.476L642.006 310.852ZM328.459 64.3629C398.084 71.4699 451.715 78.2804 493.135 87.584C534.576 96.8923 563.371 108.611 583.619 125.261C603.743 141.808 615.788 163.532 623.114 193.658C630.475 223.924 633.012 262.415 634.228 312.262L642.226 312.066C641.01 262.229 638.473 222.959 630.888 191.767C623.268 160.435 610.497 137.005 588.701 119.082C567.029 101.262 536.802 89.193 494.889 79.7785C452.954 70.3594 398.897 63.5113 329.271 56.4043L328.459 64.3629ZM316.754 22.5648L324.952 61.2136L332.778 59.5536L324.58 20.9048L316.754 22.5648ZM671.305 397.358C706.131 269.211 700.703 173.656 644.328 110.325C588.134 47.196 482.479 17.4968 320.661 17.7348L320.673 25.7348C482.144 25.4973 584.613 55.273 638.353 115.644C691.913 175.813 698.229 267.783 663.585 395.26L671.305 397.358ZM696.896 468.932L671.223 394.997L663.666 397.621L689.339 471.556L696.896 468.932ZM663.643 537.762C691.79 527.916 706.678 497.102 696.896 468.932L689.339 471.556C697.673 495.559 684.985 521.821 661.001 530.21L663.643 537.762ZM509.768 591.583L663.643 537.762L661.001 530.21L507.127 584.032L509.768 591.583ZM592.359 736.868L511.978 585.927L504.917 589.687L585.298 740.628L592.359 736.868ZM606.324 792.829C606.324 773.304 601.528 754.086 592.359 736.868L585.298 740.628C593.85 756.687 598.324 774.614 598.324 792.829L606.324 792.829ZM606.325 994.359L606.324 792.829L598.324 792.829L598.325 994.359L606.325 994.359ZM572.351 998.411L602.332 998.359L602.318 990.359L572.337 990.411L572.351 998.411ZM568.344 792.882L568.344 994.411L576.344 994.411L576.344 792.882L568.344 792.882ZM558.838 754.789C565.079 766.507 568.343 779.589 568.344 792.882L576.344 792.882C576.343 778.279 572.757 763.906 565.899 751.028L558.838 754.789ZM476.255 599.713L558.838 754.789L565.899 751.028L483.316 595.952L476.255 599.713ZM456.122 610.347L481.106 601.608L478.465 594.057L453.481 602.796L456.122 610.347ZM460.672 698.848L458.801 606.49L450.802 606.652L452.673 699.01L460.672 698.848ZM458.411 724.487C460.088 716.049 460.846 707.452 460.672 698.848L452.673 699.01C452.836 707.037 452.129 715.056 450.564 722.927L458.411 724.487ZM444.276 795.602L458.411 724.487L450.564 722.927L436.429 794.042L444.276 795.602ZM439.792 811.961C441.674 806.623 443.172 801.156 444.276 795.602L436.429 794.042C435.4 799.223 434.002 804.322 432.247 809.302L439.792 811.961ZM415.701 880.318L439.792 811.961L432.247 809.302L408.155 877.659L415.701 880.318ZM397.486 913.702C405.308 903.627 411.458 892.355 415.701 880.318L408.155 877.659C404.199 888.886 398.462 899.399 391.167 908.796L397.486 913.702ZM335.506 993.533L397.486 913.702L391.167 908.796L329.187 988.627L335.506 993.533ZM306.204 975.79L329.889 994.236L334.805 987.924L311.12 969.479L306.204 975.79ZM367.482 890.35L305.502 970.181L311.821 975.087L373.801 895.256L367.482 890.35ZM379.879 867.629C376.991 875.822 372.806 883.493 367.482 890.35L373.801 895.256C379.652 887.721 384.251 879.29 387.424 870.288L379.879 867.629ZM403.97 799.272L379.879 867.629L387.424 870.288L411.516 801.931L403.97 799.272ZM407.022 788.137C406.271 791.917 405.251 795.638 403.97 799.272L411.516 801.931C412.923 797.938 414.043 793.85 414.869 789.696L407.022 788.137ZM421.157 717.021L407.022 788.137L414.869 789.696L429.004 718.581L421.157 717.021ZM422.696 699.568C422.815 705.425 422.299 711.277 421.157 717.021L429.004 718.581C430.258 712.27 430.825 705.841 430.695 699.406L422.696 699.568ZM421.025 617.068L422.696 699.568L430.695 699.406L429.023 616.905L421.025 617.068ZM249.105 682.756L426.345 620.762L423.704 613.211L246.464 675.204L249.105 682.756ZM180.409 649.567C190.193 677.743 220.951 692.603 249.105 682.756L246.464 675.204C222.487 683.591 196.299 670.939 187.966 646.942L180.409 649.567ZM152.747 569.903L180.409 649.567L187.966 646.942L160.305 567.279L152.747 569.903ZM143.391 559.981C146.789 563.751 150.178 567.51 153.551 571.264L159.502 565.918C156.124 562.158 152.73 558.393 149.333 554.625L143.391 559.981ZM182.12 14.0897C37.3233 145.687 -3.74474 248.34 7.84929 335.71C19.3811 422.611 82.9953 492.983 143.391 559.981L149.333 554.625C88.5006 487.142 26.9241 418.638 15.7798 334.658C4.69766 251.146 43.468 150.913 187.501 20.0099L182.12 14.0897Z" fill="black" mask="url(#path-1-inside-1_110_113)"/>
<mask id="path-3-inside-2_110_113" fill="white">
<path fill-rule="evenodd" clip-rule="evenodd" d="M173.071 45.1146C166.808 37.3869 168.706 24.0066 176.073 11.5868C184.747 -3.03797 197.719 -10.7927 208.606 -4.30197C216.141 0.190492 217.635 9.29299 214.965 19.321C228.093 19.6302 238.853 25.3709 241.991 35.0282C245.388 45.4831 238.877 57.5343 226.714 65.6737C234.757 71.2401 239.318 79.3584 237.309 88.5797C234.213 102.795 219.839 102.017 203.019 98.3521C186.2 94.6875 172.439 82.8387 175.535 68.6229C175.864 67.1126 176.334 65.7744 176.932 64.5932C175.596 62.6785 174.535 60.5288 173.77 58.1759C172.377 53.8867 172.135 49.4263 173.071 45.1146Z"/>
</mask>
<path fill-rule="evenodd" clip-rule="evenodd" d="M173.071 45.1146C166.808 37.3869 168.706 24.0066 176.073 11.5868C184.747 -3.03797 197.719 -10.7927 208.606 -4.30197C216.141 0.190492 217.635 9.29299 214.965 19.321C228.093 19.6302 238.853 25.3709 241.991 35.0282C245.388 45.4831 238.877 57.5343 226.714 65.6737C234.757 71.2401 239.318 79.3584 237.309 88.5797C234.213 102.795 219.839 102.017 203.019 98.3521C186.2 94.6875 172.439 82.8387 175.535 68.6229C175.864 67.1126 176.334 65.7744 176.932 64.5932C175.596 62.6785 174.535 60.5288 173.77 58.1759C172.377 53.8867 172.135 49.4263 173.071 45.1146Z" fill="#693875"/>
<path d="M173.071 45.1146L176.002 45.7509L176.308 44.3441L175.401 43.2258L173.071 45.1146ZM176.073 11.5868L173.492 10.0564L173.492 10.0564L176.073 11.5868ZM208.606 -4.30197L210.142 -6.87876L210.142 -6.87876L208.606 -4.30197ZM214.965 19.321L212.066 18.5489L211.085 22.2304L214.894 22.3201L214.965 19.321ZM241.991 35.0282L244.844 34.1012L244.844 34.1012L241.991 35.0282ZM226.714 65.6737L225.045 63.1805L221.382 65.632L225.007 68.1406L226.714 65.6737ZM237.309 88.5797L240.241 89.2181L240.241 89.2181L237.309 88.5797ZM203.019 98.3521L202.38 101.283L202.38 101.283L203.019 98.3521ZM175.535 68.6229L172.603 67.9845L172.603 67.9845L175.535 68.6229ZM176.932 64.5932L179.608 65.9484L180.419 64.348L179.392 62.8768L176.932 64.5932ZM173.77 58.1759L170.917 59.1029L170.917 59.1029L173.77 58.1759ZM175.401 43.2258C172.924 40.169 171.885 35.7748 172.444 30.4219C173.002 25.08 175.138 19.0425 178.653 13.1173L173.492 10.0564C169.64 16.5509 167.144 23.4134 166.477 29.7985C165.811 36.1727 166.954 42.3325 170.74 47.0035L175.401 43.2258ZM178.653 13.1173C182.801 6.12317 187.847 1.00814 192.893 -1.61379C197.845 -4.18672 202.685 -4.33918 207.07 -1.72517L210.142 -6.87876C203.64 -10.7555 196.551 -10.276 190.127 -6.93803C183.796 -3.64907 178.018 2.42568 173.492 10.0564L178.653 13.1173ZM207.07 -1.72518C212.871 1.73348 214.605 9.01497 212.066 18.5489L217.864 20.093C220.666 9.57102 219.412 -1.3525 210.142 -6.87876L207.07 -1.72518ZM214.894 22.3201C227.408 22.6149 236.565 28.0349 239.138 35.9551L244.844 34.1012C241.142 22.7069 228.779 16.6455 215.035 16.3218L214.894 22.3201ZM239.138 35.9551C241.925 44.5357 236.721 55.3676 225.045 63.1805L228.382 68.167C241.034 59.7009 248.85 46.4305 244.844 34.1012L239.138 35.9551ZM225.007 68.1406C232.381 73.2442 236.052 80.2565 234.378 87.9413L240.241 89.2181C242.584 78.4603 237.133 69.2361 228.421 63.2069L225.007 68.1406ZM234.378 87.9413C233.712 90.998 232.498 93.0241 230.987 94.4043C229.46 95.7999 227.412 96.7319 224.765 97.221C219.334 98.2248 212.066 97.2529 203.658 95.4209L202.38 101.283C210.791 103.116 219.121 104.366 225.856 103.121C229.292 102.486 232.47 101.176 235.034 98.8342C237.615 96.4767 239.358 93.2693 240.241 89.2181L234.378 87.9413ZM203.658 95.4209C195.692 93.6853 188.607 90.0376 183.938 85.3314C179.311 80.6668 177.186 75.1405 178.466 69.2613L172.603 67.9845C170.788 76.3211 173.995 83.8271 179.679 89.557C185.322 95.2454 193.527 99.3543 202.38 101.283L203.658 95.4209ZM178.466 69.2613C178.747 67.9725 179.137 66.8788 179.608 65.9484L174.256 63.2381C173.53 64.67 172.981 66.2527 172.603 67.9845L178.466 69.2613ZM179.392 62.8768C178.234 61.2163 177.301 59.3348 176.624 57.2489L170.917 59.1029C171.768 61.7227 172.959 64.1407 174.472 66.3096L179.392 62.8768ZM176.624 57.249C175.39 53.4508 175.182 49.5296 176.002 45.7509L170.139 44.4783C169.087 49.323 169.364 54.3226 170.917 59.1029L176.624 57.249Z" fill="black" mask="url(#path-3-inside-2_110_113)"/>
<ellipse cx="54.0136" cy="54.1683" rx="54.0136" ry="54.1683" transform="matrix(0.943925 -0.33016 0.328018 0.944672 401.319 205.478)" fill="#693875"/>
<ellipse cx="54.0136" cy="54.1683" rx="54.0136" ry="54.1683" transform="matrix(0.943925 -0.33016 0.328018 0.944671 146.856 294.484)" fill="#693875"/>
<rect width="485.636" height="250.833" rx="30" transform="matrix(0.943925 -0.33016 0.328018 0.944671 132.784 414.179)" fill="black"/>
<path d="M273.294 463.789L271.725 413.987L302.16 453.352C305.473 457.636 311.168 459.29 316.265 457.448L363.019 440.544L335.072 481.832C332.039 486.313 332.222 492.234 335.526 496.508L365.996 535.918L318.323 522.027L316.218 529.234L318.323 522.027C313.118 520.51 307.524 522.532 304.479 527.032L310.68 531.236L304.479 527.032L276.584 568.245L275.013 518.386C274.843 512.98 271.222 508.302 266.038 506.791L218.278 492.875L265.032 475.971C270.128 474.128 273.464 469.209 273.294 463.789Z" fill="black" stroke="white" stroke-width="15"/>
<path d="M488.29 392.513L486.721 342.711L517.157 382.077C520.469 386.361 526.164 388.015 531.261 386.172L578.015 369.268L550.069 410.557C547.035 415.038 547.218 420.959 550.522 425.232L580.992 464.642L533.319 450.751L531.214 457.958L533.319 450.751C528.114 449.234 522.521 451.257 519.475 455.757L525.676 459.96L519.475 455.757L491.58 496.969L490.009 447.111C489.839 441.704 486.218 437.026 481.034 435.516L433.274 421.599L480.028 404.695C485.124 402.853 488.46 397.934 488.29 392.513Z" fill="black" stroke="white" stroke-width="15"/>
<mask id="path-10-inside-3_110_113" fill="white">
<path fill-rule="evenodd" clip-rule="evenodd" d="M327.975 32.7947C330.345 23.4709 323.285 12.5019 311.82 4.59652C298.319 -4.71266 283.824 -6.24848 276.902 3.86823C272.112 10.8698 274.474 19.4624 280.859 27.1761C269.48 32.7793 262.367 42.1863 263.513 51.9339C264.754 62.4863 275.319 70.416 289.26 72.6182C284.457 80.769 283.736 89.7445 289.215 97.0199C297.662 108.236 309.944 101.714 323.204 91.6681C336.464 81.6218 343.743 65.6366 335.296 54.4207C334.399 53.2299 333.447 52.2473 332.448 51.4541C332.846 49.2311 332.909 46.9133 332.63 44.5378C332.121 40.209 330.534 36.1975 327.975 32.7947Z"/>
</mask>
<path fill-rule="evenodd" clip-rule="evenodd" d="M327.975 32.7947C330.345 23.4709 323.285 12.5019 311.82 4.59652C298.319 -4.71266 283.824 -6.24848 276.902 3.86823C272.112 10.8698 274.474 19.4624 280.859 27.1761C269.48 32.7793 262.367 42.1863 263.513 51.9339C264.754 62.4863 275.319 70.416 289.26 72.6182C284.457 80.769 283.736 89.7445 289.215 97.0199C297.662 108.236 309.944 101.714 323.204 91.6681C336.464 81.6218 343.743 65.6366 335.296 54.4207C334.399 53.2299 333.447 52.2473 332.448 51.4541C332.846 49.2311 332.909 46.9133 332.63 44.5378C332.121 40.209 330.534 36.1975 327.975 32.7947Z" fill="#693875"/>
<path d="M327.975 32.7947L325.582 34.6044L324.717 33.4531L325.072 32.0551L327.975 32.7947ZM311.82 4.59652L313.519 2.12088L313.519 2.12088L311.82 4.59652ZM276.902 3.86823L274.432 2.1703L276.902 3.86823ZM280.859 27.1761L283.165 25.2566L285.593 28.1904L282.177 29.8723L280.859 27.1761ZM263.513 51.9339L266.488 51.5797L266.488 51.5797L263.513 51.9339ZM289.26 72.6182L289.728 69.6508L294.082 70.3385L291.839 74.1447L289.26 72.6182ZM289.215 97.0199L291.606 95.2083L291.606 95.2083L289.215 97.0199ZM323.204 91.6681L321.4 89.2719L321.4 89.2719L323.204 91.6681ZM335.296 54.4207L337.687 52.6091L337.687 52.6091L335.296 54.4207ZM332.448 51.4541L330.587 53.8104L329.182 52.6952L329.499 50.9253L332.448 51.4541ZM332.63 44.5378L335.605 44.1836L335.605 44.1836L332.63 44.5378ZM325.072 32.0551C326.001 28.4015 325.149 24.1533 322.51 19.7C319.876 15.256 315.581 10.8369 310.121 7.07217L313.519 2.12088C319.524 6.2615 324.492 11.2796 327.661 16.6274C330.826 21.9659 332.32 27.8641 330.878 33.5344L325.072 32.0551ZM310.121 7.07217C303.675 2.62781 297.21 0.198489 291.755 -0.0514602C286.406 -0.296563 282.138 1.52475 279.373 5.56616L274.432 2.1703C278.589 -3.905 285.029 -6.37413 292.033 -6.0532C298.931 -5.73712 306.464 -2.74394 313.519 2.12088L310.121 7.07217ZM279.373 5.56616C275.723 10.9008 277.108 17.9386 283.165 25.2566L278.552 29.0956C271.841 20.9862 268.502 10.8387 274.432 2.1703L279.373 5.56616ZM282.177 29.8723C271.348 35.2048 265.556 43.6479 266.488 51.5797L260.538 52.2881C259.178 40.7247 267.611 30.3539 279.54 24.4799L282.177 29.8723ZM266.488 51.5797C267.499 60.1696 276.366 67.54 289.728 69.6508L288.791 75.5857C274.272 73.292 262.009 64.803 260.538 52.2881L266.488 51.5797ZM291.839 74.1447C287.449 81.5955 287.074 89.1908 291.606 95.2083L286.824 98.8315C280.397 90.2982 281.466 79.9425 286.681 71.0918L291.839 74.1447ZM291.606 95.2083C293.412 97.6052 295.275 98.8747 297.132 99.4644C299.01 100.061 301.161 100.05 303.665 99.4072C308.808 98.0874 314.77 94.2945 321.4 89.2719L325.009 94.0643C318.379 99.088 311.57 103.579 305.146 105.228C301.865 106.069 298.533 106.213 295.318 105.192C292.081 104.164 289.242 102.043 286.824 98.8315L291.606 95.2083ZM321.4 89.2719C327.668 84.5229 332.391 78.4591 334.576 72.4555C336.74 66.5067 336.37 60.8343 332.904 56.2323L337.687 52.6091C342.668 59.223 342.883 67.1513 340.205 74.5106C337.547 81.8151 332.001 88.767 325.009 94.0643L321.4 89.2719ZM332.904 56.2323C332.144 55.2227 331.367 54.429 330.587 53.8104L334.308 49.0977C335.528 50.0656 336.654 51.2372 337.687 52.6091L332.904 56.2323ZM329.499 50.9253C329.842 49.0079 329.901 46.9881 329.654 44.892L335.605 44.1836C335.917 46.8384 335.849 49.4543 335.396 51.9828L329.499 50.9253ZM329.654 44.892C329.206 41.0769 327.813 37.5708 325.582 34.6044L330.368 30.985C333.255 34.8243 335.036 39.341 335.605 44.1836L329.654 44.892Z" fill="black" mask="url(#path-10-inside-3_110_113)"/>
<rect x="117.167" y="367.841" width="463" height="48.7376" transform="rotate(-19.2864 117.167 367.841)" fill="white"/>
</g>
<defs>
<clipPath id="clip0_110_113">
<rect width="700" height="700" fill="white"/>
</clipPath>
</defs>
</svg>
